<?xml version="1.0" encoding="utf-8"?>
<!-- Generator: Adobe Illustrator 16.0.0, SVG Export Plug-In . SVG Version: 6.00 Build 0)  -->
<!DOCTYPE svg PUBLIC "-//W3C//DTD SVG 1.1//EN" "http://www.w3.org/Graphics/SVG/1.1/DTD/svg11.dtd">
<svg version="1.1" id="Warstwa_2_1_" xmlns="http://www.w3.org/2000/svg" xmlns:xlink="http://www.w3.org/1999/xlink" x="0px"
	 y="0px" width="70px" height="72px" viewBox="0 0 70 72" enable-background="new 0 0 70 72" xml:space="preserve">
<path fill-rule="evenodd" clip-rule="evenodd" fill="#71C6D8" d="M35.639,68.159c-17.68,0.012-32.11-14.415-32.118-32.11
	C3.513,18.265,17.906,3.842,35.662,3.84c17.721-0.002,32.182,14.402,32.177,32.051C67.835,53.776,53.493,68.147,35.639,68.159z"/>
<path fill-rule="evenodd" clip-rule="evenodd" fill="#FFFFFF" d="M18.303,52.713c-0.213-0.447-0.137-0.853-0.137-1.245
	c-0.004-9.554-0.004-19.106-0.001-28.66c0.001-2.486,1.599-4.083,4.078-4.084c8.833-0.002,17.667-0.003,26.501,0
	c2.322,0.001,3.97,1.639,3.971,3.95c0.005,6.596,0.006,13.191,0,19.787c-0.002,2.254-1.549,3.826-3.819,3.831
	c-7.475,0.016-14.95,0.024-22.424-0.012c-1.001-0.006-1.727,0.268-2.416,1c-1.533,1.629-3.145,3.185-4.737,4.759
	C19.048,52.307,18.847,52.699,18.303,52.713z"/>
<rect x="33.767" y="25.784" fill-rule="evenodd" clip-rule="evenodd" fill="#74C7D8" width="3.366" height="6.705"/>
<rect x="33.858" y="36.025" fill-rule="evenodd" clip-rule="evenodd" fill="#73C7D8" width="3.165" height="3.346"/>
</svg>
