<?xml version="1.0" encoding="utf-8"?>
<!-- Generator: Adobe Illustrator 16.0.0, SVG Export Plug-In . SVG Version: 6.00 Build 0)  -->
<!DOCTYPE svg PUBLIC "-//W3C//DTD SVG 1.1//EN" "http://www.w3.org/Graphics/SVG/1.1/DTD/svg11.dtd">
<svg version="1.1" id="Warstwa_3" xmlns="http://www.w3.org/2000/svg" xmlns:xlink="http://www.w3.org/1999/xlink" x="0px" y="0px"
	 width="70px" height="72px" viewBox="0 0 70 72" enable-background="new 0 0 70 72" xml:space="preserve">
<path fill-rule="evenodd" clip-rule="evenodd" fill="#70C6D7" d="M35.71,3.68c17.783,0.047,32.144,14.388,32.113,32.16
	c-0.015,8.9-3.207,16.577-9.536,22.838c-6.329,6.26-14.032,9.374-22.937,9.309C17.92,67.86,3.443,53.666,3.527,35.66
	C3.609,18.049,17.865,3.703,35.71,3.68z"/>
<path fill-rule="evenodd" clip-rule="evenodd" fill="#FFFFFF" d="M25.729,53.119c-1.911,0-4.027,0-6.143,0c-0.274,0-0.548,0-0.884,0
	c0-2.447,0-4.832,0-7.152c7.044-7.044,14.077-14.076,21.043-21.042c2.359,2.359,4.695,4.695,7.088,7.087
	C39.914,38.934,32.887,45.961,25.729,53.119z"/>
<path fill-rule="evenodd" clip-rule="evenodd" fill="#FFFFFF" d="M42.12,22.551c1.257-1.254,2.512-2.532,3.801-3.775
	c0.419-0.404,1.515-0.305,1.97,0.129c0.607,0.579,1.191,1.184,1.787,1.775c1.163,1.154,2.328,2.307,3.46,3.429
	c0.025,0.186,0.039,0.303,0.057,0.418c0.113,0.771-0.153,1.348-0.738,1.886c-1.115,1.026-2.159,2.13-3.224,3.193
	C48.437,29.104,42.959,23.674,42.12,22.551z"/>
</svg>
