<?xml version="1.0" encoding="utf-8"?>
<!-- Generator: Adobe Illustrator 16.0.0, SVG Export Plug-In . SVG Version: 6.00 Build 0)  -->
<!DOCTYPE svg PUBLIC "-//W3C//DTD SVG 1.1//EN" "http://www.w3.org/Graphics/SVG/1.1/DTD/svg11.dtd">
<svg version="1.1" xmlns="http://www.w3.org/2000/svg" xmlns:xlink="http://www.w3.org/1999/xlink" x="0px" y="0px" width="70px"
	 height="72px" viewBox="0 0 70 72" enable-background="new 0 0 70 72" xml:space="preserve">
<g id="Warstwa_2">
</g>
<g id="Warstwa_4">
</g>
<g id="Warstwa_3">
	<g>
		<path fill-rule="evenodd" clip-rule="evenodd" fill="#71C7D8" d="M35.826,4.18C53.603,4.199,67.912,18.505,68,36.17
			c0.09,17.975-14.483,32.412-32.315,32.328c-17.6-0.082-32.06-14.372-31.994-32.289C3.756,18.513,18.086,4.214,35.826,4.18z"/>
		<path fill-rule="evenodd" clip-rule="evenodd" fill="#FDFEFE" d="M35.992,47.859c-5.313,0-10.626,0.006-15.939-0.003
			c-1.655-0.003-1.415,0.205-1.434-1.488c-0.01-0.919,0.034-1.839-0.011-2.756c-0.052-1.063,0.479-1.797,1.201-2.479
			c0.828-0.781,1.841-1.249,2.872-1.622c2.063-0.747,4.197-1.205,6.406-1.23c1.363-0.016,2.681,0.324,3.987,0.635
			c0.873,0.208,1.623,0.427,2.574,0.874c0.261,0.165,0.507,0.102,0.786-0.024c2.237-1.002,4.606-1.531,7.039-1.452
			c2.179,0.071,4.314,0.521,6.347,1.42c0.845,0.375,1.634,0.776,2.342,1.365c0.808,0.672,1.302,1.463,1.263,2.562
			c-0.04,1.117,0.001,2.237-0.012,3.355c-0.009,0.821-0.021,0.831-0.883,0.839c-1.038,0.011-2.077,0.003-3.116,0.003
			C44.941,47.859,40.467,47.859,35.992,47.859z"/>
		<path fill-rule="evenodd" clip-rule="evenodd" fill="#FEFFFF" d="M48.646,31.146c0.015,2.792-2.65,5.576-5.525,5.504
			c-3.069-0.077-5.457-2.541-5.511-5.591c-0.047-2.695,2.543-5.515,5.61-5.528C45.896,25.521,48.662,27.941,48.646,31.146z"/>
		<path fill-rule="evenodd" clip-rule="evenodd" fill="#FEFFFF" d="M23.39,31.027c-0.02-2.808,2.591-5.598,5.637-5.498
			c2.666,0.088,5.423,2.645,5.393,5.571c-0.028,2.827-2.341,5.559-5.648,5.552C26.088,36.647,23.37,34.094,23.39,31.027z"/>
		<path fill-rule="evenodd" clip-rule="evenodd" fill="#73C8D9" d="M28.815,45.464c-2.277,0-4.554,0.005-6.831-0.002
			c-1.139-0.004-1.122-0.037-1.186-1.122c-0.049-0.813,0.268-1.331,0.926-1.784c0.704-0.482,1.478-0.807,2.259-1.064
			c2.016-0.665,4.097-1.049,6.228-0.805c1.898,0.219,3.735,0.714,5.425,1.645c1.093,0.603,1.443,1.445,1.211,2.708
			c-0.054,0.293-0.211,0.408-0.48,0.415c-0.279,0.008-0.56,0.01-0.839,0.01C33.29,45.465,31.053,45.464,28.815,45.464z"/>
		<path fill-rule="evenodd" clip-rule="evenodd" fill="#73C8D9" d="M38.474,41.518c1.217-0.539,2.418-0.74,3.637-0.845
			c2.431-0.209,4.739,0.342,6.982,1.22c0.365,0.143,0.675,0.378,1.041,0.574c1.06,0.568,1.175,1.392,1.082,2.396
			c-0.035,0.374-0.225,0.584-0.609,0.595c-0.159,0.005-0.319,0.007-0.479,0.007c-3.315,0-6.63,0.004-9.945-0.003
			c-0.93-0.002-0.986-0.021-0.938-0.911C39.301,43.481,39.053,42.508,38.474,41.518z"/>
		<path fill-rule="evenodd" clip-rule="evenodd" fill="#72C7D9" d="M43.232,27.941c1.655,0.008,3.309,1.589,3.174,3.189
			c-0.169,2.022-1.325,3.072-3.168,3.231c-1.69,0.146-3.19-1.521-3.281-3.234C39.877,29.586,41.44,27.751,43.232,27.941z"/>
		<path fill-rule="evenodd" clip-rule="evenodd" fill="#72C7D9" d="M28.908,27.941c1.847,0.015,3.167,1.398,3.146,3.298
			c-0.017,1.595-1.558,3.209-3.121,3.134c-1.976-0.094-3.24-1.388-3.31-3.344C25.567,29.418,27.218,27.928,28.908,27.941z"/>
	</g>
</g>
</svg>
