<?xml version="1.0" encoding="utf-8"?>
<!-- Generator: Adobe Illustrator 16.0.0, SVG Export Plug-In . SVG Version: 6.00 Build 0)  -->
<!DOCTYPE svg PUBLIC "-//W3C//DTD SVG 1.1//EN" "http://www.w3.org/Graphics/SVG/1.1/DTD/svg11.dtd">
<svg version="1.1" id="Warstwa_1" xmlns="http://www.w3.org/2000/svg" xmlns:xlink="http://www.w3.org/1999/xlink" x="0px" y="0px"
	 width="209px" height="206px" viewBox="166.965 15.06 209 206" enable-background="new 166.965 15.06 209 206"
	 xml:space="preserve">
<g id="Warstwa_2">
</g>
<g id="Warstwa_4">
</g>
<g id="Warstwa_3">
	<circle fill="#6FC6D8" cx="272.052" cy="117.481" r="95.25"/>
	<path fill="#FFFBF8" d="M231.059,118.2c0,0-6.734,7.543-19.399,6.945c-12.242-0.58-18.322-6.945-18.322-6.945V93.783
		c0,0,6.188,4.106,18.052,4.071c13.741-0.041,19.669-4.071,19.669-4.071L231.059,118.2L231.059,118.2z"/>
	<path fill="#475057" d="M231.059,80.815l-18.859,10.542l-18.861-10.441v11.25c0,0,4.042,4.58,18.861,4.58
		c12.663,0,18.859-4.58,18.859-4.58V80.815z"/>
	<polygon fill="#475057" points="212.197,90.103 182.04,73.537 212.198,54.31 242.356,73.537 	"/>
	<path fill="#475057" d="M179.327,156.279c0,0,11.923,6.783,21.15,8.893c5.614,1.281,17.39,1.125,23.037,0
		c10.07-2.008,20.073-8.893,20.073-8.893s2.16-13.754-0.673-22.498c-2.561-7.901-11.855-13.876-11.855-13.876
		s-5.725,6.691-19.198,6.614c-11.652-0.067-18.523-6.614-18.523-6.614s-9.668,6.416-12.596,14.058
		C176.599,144.773,179.327,156.279,179.327,156.279z"/>
	<polygon fill="#F9FBF5" stroke="#6FC6D8" stroke-miterlimit="10" points="218.596,128.001 217.081,130.729 217.081,149.119 
		212.198,155.585 207.314,149.119 207.314,130.729 205.799,128.001 208.559,126.322 215.837,126.322 	"/>
	<path fill="#FFFBF8" d="M295.385,136.733c0,0-8.332,9.332-24,8.593c-15.145-0.718-22.666-8.593-22.666-8.593v-30.208
		c0,0,7.656,5.08,22.333,5.037c17-0.05,24.333-5.037,24.333-5.037V136.733z"/>
	<path fill="#475057" d="M299.051,156.279c0,0,11.924,6.783,21.152,8.893c5.612,1.281,17.389,1.125,23.036,0
		c10.069-2.008,20.072-8.893,20.072-8.893s2.16-13.754-0.674-22.498c-2.56-7.901-11.855-13.876-11.855-13.876
		s-5.725,6.691-19.196,6.614c-11.652-0.067-18.523-6.614-18.523-6.614s-9.668,6.416-12.597,14.058
		C296.323,144.773,299.051,156.279,299.051,156.279z"/>
	<path fill="#475057" d="M295.385,90.483l-23.333,13.042l-23.333-12.917v13.917c0,0,5,5.667,23.333,5.667
		c15.667,0,23.333-5.667,23.333-5.667V90.483z"/>
	<polygon fill="#475057" points="272.05,101.973 234.741,81.479 272.051,57.692 309.361,81.479 	"/>
	<path fill="#475057" stroke="#6FC6D8" stroke-miterlimit="10" d="M231.385,182.841c0,0,14.75,8.393,26.167,11
		c6.946,1.588,21.512,1.394,28.5,0c12.458-2.482,24.833-11,24.833-11s2.672-17.014-0.833-27.832
		c-3.167-9.775-14.667-17.168-14.667-17.168s-7.082,8.279-23.75,8.185c-14.417-0.083-22.917-8.185-22.917-8.185
		s-11.961,7.939-15.583,17.393C228.01,168.608,231.385,182.841,231.385,182.841z"/>
	<polygon fill="#F9FBF5" stroke="#6FC6D8" stroke-miterlimit="10" points="279.967,147.858 278.092,150.233 278.092,172.983 
		272.051,181.983 266.01,173.983 266.01,151.233 264.135,147.858 267.549,145.781 276.553,145.781 	"/>
	<path fill="#FFFBF8" d="M350.783,118.2c0,0-6.734,7.543-19.399,6.945c-12.241-0.58-18.321-6.945-18.321-6.945V93.783
		c0,0,6.188,4.106,18.052,4.071c13.741-0.041,19.67-4.071,19.67-4.071L350.783,118.2L350.783,118.2z"/>
	<path fill="#475057" d="M350.783,80.815l-18.859,10.542l-18.861-10.441v11.25c0,0,4.041,4.58,18.861,4.58
		c12.663,0,18.859-4.58,18.859-4.58V80.815z"/>
	<polygon fill="#475057" points="331.922,90.103 301.764,73.537 331.922,54.31 362.081,73.537 	"/>
	<polygon fill="#F9FBF5" stroke="#6FC6D8" stroke-miterlimit="10" points="338.32,128.001 336.805,130.729 336.805,149.119 
		331.922,155.585 327.039,149.119 327.039,130.729 325.523,128.001 328.283,126.322 335.562,126.322 	"/>
</g>
</svg>
